<svg width="15" height="16" viewBox="0 0 15 16" fill="none" xmlns="http://www.w3.org/2000/svg">
<path d="M5.525 0.168563C5.76875 -0.0595623 6.14687 -0.0564373 6.39062 0.171688C7.25313 0.981063 8.0625 1.85294 8.81875 2.79669C9.1625 2.34669 9.55313 1.85606 9.975 1.45606C10.2219 1.22481 10.6031 1.22481 10.85 1.45919C11.9313 2.49044 12.8469 3.85294 13.4906 5.14669C14.125 6.42169 14.5469 7.72481 14.5469 8.64356C14.5469 12.6311 11.4281 15.9998 7.54688 15.9998C3.62188 15.9998 0.546875 12.6279 0.546875 8.64044C0.546875 7.44044 1.10313 5.97481 1.96563 4.52481C2.8375 3.05294 4.06875 1.51856 5.525 0.168563ZM7.6 12.9998C8.39062 12.9998 9.09062 12.7811 9.75 12.3436C11.0656 11.4248 11.4187 9.58731 10.6281 8.14356C10.4875 7.86231 10.1281 7.84356 9.925 8.08106L9.1375 8.99669C8.93125 9.23419 8.55937 9.22794 8.36562 8.98106C7.85 8.32481 6.92812 7.15294 6.40312 6.48731C6.20625 6.23731 5.83125 6.23419 5.63125 6.48419C4.575 7.81231 4.04375 8.64981 4.04375 9.59044C4.04688 11.7311 5.62813 12.9998 7.6 12.9998Z" fill="url(#paint0_linear_99_123)"/>
<defs>
<linearGradient id="paint0_linear_99_123" x1="1" y1="2.5" x2="15" y2="16" gradientUnits="userSpaceOnUse">
<stop offset="0.271" stop-color="#FF4343"/>
<stop offset="1" stop-color="#FF9F43"/>
</linearGradient>
</defs>
</svg>
