<svg width="19" height="11" viewBox="0 0 19 11" fill="none" xmlns="http://www.w3.org/2000/svg">
<path d="M0.25 1.83333C0.25 0.822135 1.09067 0 2.12467 0H7.74867H9.15467H9.62333H17.122C18.156 0 18.9967 0.822135 18.9967 1.83333V9.16667C18.9967 10.1779 18.156 11 17.122 11H9.62333H9.15467H7.74867H2.12467C1.09067 11 0.25 10.1779 0.25 9.16667V1.83333ZM9.62333 1.83333V9.16667H17.122V1.83333H9.62333ZM5.4727 3.20547C5.37897 2.99922 5.16807 2.86458 4.93667 2.86458C4.70526 2.86458 4.49436 2.99922 4.40063 3.20547L2.52596 7.33047C2.39415 7.61979 2.52889 7.95781 2.82474 8.08672C3.12058 8.21562 3.46622 8.08385 3.59804 7.79453L3.85873 7.21875H6.0146L6.2753 7.79453C6.40711 8.08385 6.75275 8.21276 7.0486 8.08672C7.34444 7.96068 7.47625 7.61979 7.34737 7.33047L5.4727 3.20547ZM4.93667 4.84688L5.49321 6.07292H4.38012L4.93667 4.84688ZM13.3727 2.86458C13.6949 2.86458 13.9585 3.1224 13.9585 3.4375V3.55208H15.2473H15.716C16.0382 3.55208 16.3018 3.8099 16.3018 4.125C16.3018 4.4401 16.0382 4.69792 15.716 4.69792H15.6574L15.6105 4.82682C15.3499 5.52578 14.9544 6.16172 14.4506 6.70026C14.477 6.71745 14.5033 6.73177 14.5297 6.74609L15.0833 7.06979C15.3616 7.23307 15.4494 7.58542 15.2854 7.85469C15.1214 8.12396 14.7582 8.21276 14.4828 8.05234L13.9292 7.72865C13.7974 7.6513 13.6714 7.57109 13.5455 7.48516C13.235 7.7 12.904 7.8862 12.5496 8.04089L12.4441 8.08672C12.1483 8.21562 11.8026 8.08385 11.6708 7.79453C11.539 7.50521 11.6737 7.16719 11.9696 7.03828L12.075 6.99245C12.2625 6.90938 12.4441 6.81771 12.6169 6.71172L12.2596 6.36224C12.0311 6.1388 12.0311 5.775 12.2596 5.55156C12.4881 5.32812 12.8601 5.32812 13.0885 5.55156L13.5162 5.96979L13.5308 5.98411C13.8941 5.60885 14.1899 5.17344 14.4037 4.69505H13.3727H11.2637C10.9415 4.69505 10.6778 4.43724 10.6778 4.12214C10.6778 3.80703 10.9415 3.54922 11.2637 3.54922H12.7868V3.43464C12.7868 3.11953 13.0505 2.86172 13.3727 2.86172V2.86458Z" fill="black"/>
</svg>
